<svg width="38" height="44" viewBox="0 0 38 44" fill="none" xmlns="http://www.w3.org/2000/svg">
<path d="M19.0019 12.6679C20.6818 12.6679 22.2929 12.0006 23.4807 10.8128C24.6686 9.62492 25.3359 8.01385 25.3359 6.33397C25.3359 4.6541 24.6686 3.04303 23.4807 1.85518C22.2929 0.667328 20.6818 0 19.0019 0C17.322 0 15.711 0.667328 14.5231 1.85518C13.3353 3.04303 12.6679 4.6541 12.6679 6.33397C12.6679 8.01385 13.3353 9.62492 14.5231 10.8128C15.711 12.0006 17.322 12.6679 19.0019 12.6679ZM19.0019 20.142C14.0192 15.5182 7.38964 12.6679 0 12.6679V35.8925C7.38964 35.8925 14.0192 38.7428 19.0019 43.3666C23.9846 38.7428 30.6142 35.8925 38.0038 35.8925V12.6679C30.6142 12.6679 23.9846 15.5182 19.0019 20.142Z" fill="#854836"/>
</svg>
